<?xml version="1.0" encoding="UTF-8"?>
<svg version="1.1" xmlns="http://www.w3.org/2000/svg" width="1080" height="1080">
<path d="M0 0 C2.54046503 0.0081103 5.08092098 0.01304311 7.62139511 0.01734924 C88.73300503 0.17464507 170.97602897 2.07424882 280.49020004 18.50794983 C287.38769702 27.48775578 286.36368727 42.17768833 286.49190903 52.94154358 C286.52297419 54.69411948 286.55506141 56.44667749 286.58802319 58.19921875 C286.68002129 63.36235196 286.75103234 68.52561374 286.81805563 73.68912506 C286.86803819 77.47279694 286.92225709 81.25639144 286.97727966 85.03999329 C287.26359295 104.80498295 287.50842724 124.57040901 287.74291405 144.33607322 C287.81734844 150.60979648 287.89276731 156.88350728 287.96880531 163.1572113 C287.97977127 164.06216967 287.99073722 164.96712803 288.00203548 165.89950937 C288.02434091 167.7401178 288.04664738 169.58072622 288.06895488 171.42133462 C288.27651637 188.55797914 288.48087033 205.69466076 288.68416011 222.83135641 C288.86841184 238.35521163 289.05654184 253.87901693 289.24655718 269.40280259 C289.44360217 285.50363111 289.63802298 301.60448946 289.82973856 317.70538235 C289.93664036 326.67996543 290.04447466 335.65453462 290.15498161 344.6290741 C290.37338744 362.42129171 290.57564794 380.21342048 290.73340052 398.00628948 C290.80632292 406.07452685 290.90292843 414.14182747 291.03127455 422.2093783 C291.12741654 428.32553882 291.19437747 434.44163245 291.25027549 440.55830956 C291.27823915 443.04637854 291.31661311 445.53435539 291.3661176 448.022089 C291.43181235 451.38582745 291.46092107 454.7479238 291.4806633 458.11219788 C291.50895702 459.09293715 291.53725074 460.07367641 291.56640184 461.08413506 C291.56012439 463.61701307 291.50302534 465.80690961 290.86520004 468.25794983 C278.64300847 479.30477795 254.45435092 475.72043484 238.93380356 475.64906311 C235.16288333 475.63186346 231.39259899 475.64191628 227.62170124 475.6597805 C224.67976306 475.67068224 221.73797297 475.66714482 218.79603004 475.65939713 C217.40595992 475.65741842 216.01587565 475.65977088 214.62582207 475.66683578 C202.21217016 475.7161789 191.30907174 474.21469699 181.95504379 465.47279358 C175.16330162 458.2196167 172.25289036 450.78514494 172.34621811 440.89953613 C172.33496623 439.55267978 172.33496623 439.55267978 172.32348704 438.1786142 C172.30331516 435.19367025 172.31129191 432.20949355 172.31930161 429.22450256 C172.3105609 427.07541151 172.30007338 424.92632697 172.28797531 422.7772522 C172.26015591 416.9597369 172.25670974 411.14243439 172.2576952 405.32486224 C172.25456264 399.23895698 172.22893722 393.15314705 172.20571518 387.06729126 C172.16517808 375.55031967 172.1448198 364.03340467 172.13174129 352.51637274 C172.11586354 339.40148976 172.07744457 326.28670298 172.037148 313.17187583 C171.95478033 286.20059946 171.9006686 259.22932577 171.86520004 232.25794983 C169.95643748 236.38486362 168.04901298 240.51239454 166.14181137 244.64002991 C165.33892056 246.37588726 165.33892056 246.37588726 164.51980972 248.14681244 C160.10415411 257.7060346 155.79844239 267.30983788 151.55270004 276.94544983 C149.31264913 282.02493919 147.06401709 287.10030495 144.79531479 292.16706848 C143.85342635 294.28441689 142.92886326 296.40884155 142.0043602 298.53382874 C141.40269728 299.88619712 140.80035057 301.23826156 140.19723129 302.58998108 C139.41376328 304.37432556 139.41376328 304.37432556 138.61446762 306.19471741 C136.72085704 309.51071629 135.05966495 311.19792754 131.86520004 313.25794983 C128.98138244 313.87054435 126.40131678 314.27164584 123.49020004 314.50794983 C122.69581528 314.58239319 121.90143051 314.65683655 121.08297348 314.73353577 C102.65998629 316.33073442 82.62849786 316.63318493 67.61520004 304.32044983 C54.74594167 291.80067611 49.00844793 272.19511834 42.86520004 255.75794983 C42.56218979 254.950755 42.25917953 254.14356018 41.94698715 253.31190491 C40.7997146 250.17719397 39.86520004 247.62333825 39.86520004 244.25794983 C38.87520004 244.25794983 37.88520004 244.25794983 36.86520004 244.25794983 C32.33146726 259.77333338 32.29548948 274.94076348 32.30270004 291.00794983 C32.26216498 333.39681624 32.26216498 333.39681624 21.67770004 345.00794983 C11.08199266 354.98842259 -3.37776636 353.79887209 -16.91995621 353.45472717 C-25.28604463 353.11975292 -33.62066639 352.23013222 -41.94729996 351.38294983 C-42.80892746 351.2959079 -43.67055496 351.20886597 -44.55829239 351.1191864 C-75.43269712 347.96005266 -75.43269712 347.96005266 -81.88479996 341.50794983 C-85.72774438 335.95703011 -86.45034072 330.01048999 -86.95120621 323.40248108 C-87.01232086 322.66801254 -87.07343552 321.93354401 -87.13640213 321.17681885 C-87.33104136 318.80857557 -87.51483709 316.43966004 -87.69729996 314.07044983 C-87.82849482 312.42004705 -87.95984335 310.76965648 -88.09134293 309.11927795 C-90.80227144 274.69176454 -91.34396482 240.14433369 -91.32368088 205.62083435 C-91.32226903 203.20503159 -91.32238571 200.78923146 -91.32248306 198.37342834 C-91.27896882 52.26382663 -91.27896882 52.26382663 -79.13479996 15.25794983 C-78.78933121 14.17384827 -78.44386246 13.0897467 -78.08792496 11.97279358 C-76.66387593 8.38687302 -75.52346772 5.88320988 -71.90124893 4.25227356 C-64.68613269 2.41819763 -57.66151213 1.53212854 -50.23636246 1.08607483 C-48.36423584 0.96670563 -48.36423584 0.96670563 -46.45428848 0.84492493 C-30.97917634 -0.04792707 -15.49602092 -0.05239829 0 0 Z " fill="#FFFFFF" transform="translate(291.1347999572754,526.7420501708984)"/>
<path d="M0 0 C2.37435618 2.12537354 4.69127211 4.30043755 7.0078125 6.48828125 C8.27527279 7.55480271 9.54604514 8.61740216 10.8203125 9.67578125 C38.98466259 34.38333988 57.89973623 69.13315252 69.0078125 104.48828125 C69.24338867 105.22578613 69.47896484 105.96329102 69.72167969 106.72314453 C75.53967969 125.21044126 79.10106836 145.12035565 79.2109375 164.52734375 C79.21799713 165.36243973 79.22505676 166.19753571 79.23233032 167.05793762 C79.46187438 202.21181488 79.46187438 202.21181488 76.0078125 219.48828125 C75.70182129 221.04192383 75.70182129 221.04192383 75.38964844 222.62695312 C67.76372849 260.30143974 52.50150578 294.69377394 28.0078125 324.48828125 C27.22374023 325.47163452 27.22374023 325.47163452 26.42382812 326.47485352 C25.90626953 327.10834717 25.38871094 327.74184082 24.85546875 328.39453125 C24.395354 328.96365234 23.93523926 329.53277344 23.46118164 330.11914062 C20.89826386 332.53352714 18.39508173 332.55100846 15.0078125 332.48828125 C10.33186929 331.15366912 8.46757379 327.01047311 6.0703125 323.11328125 C5.090392 321.55954992 4.10989985 320.00617902 3.12890625 318.453125 C2.61827637 317.63827637 2.10764648 316.82342773 1.58154297 315.98388672 C-1.02377325 311.85240326 -3.69795381 307.76613846 -6.3671875 303.67578125 C-7.4625293 301.99237598 -8.55757869 300.30878041 -9.65234375 298.625 C-10.20035645 297.78243652 -10.74836914 296.93987305 -11.31298828 296.07177734 C-13.01882151 293.44730406 -14.72256609 290.82148548 -16.42578125 288.1953125 C-17.55206543 286.4596238 -18.67836723 284.72394653 -19.8046875 282.98828125 C-20.34424072 282.15594971 -20.88379395 281.32361816 -21.43969727 280.46606445 C-25.121916 274.79600389 -28.87090425 269.17823172 -32.69921875 263.60546875 C-33.9921875 261.48828125 -33.9921875 261.48828125 -33.9921875 259.48828125 C-37.24858409 258.54557123 -37.24858409 258.54557123 -40.9921875 258.48828125 C-45.52379549 262.24966544 -48.62938103 267.02902952 -51.9296875 271.86328125 C-54.87347668 276.16311267 -57.83905119 280.42648795 -61.1171875 284.48046875 C-61.79974609 285.32520752 -61.79974609 285.32520752 -62.49609375 286.18701172 C-64.7911903 288.18323636 -67.00895316 288.24683531 -69.96484375 288.22265625 C-73.10151101 287.08644537 -74.74838309 284.92326182 -76.9921875 282.48828125 C-77.9241807 281.50622708 -78.8564812 280.52446446 -79.7890625 279.54296875 C-85.30178211 273.62959388 -90.57680364 267.61925933 -95.640625 261.3125 C-99.78499326 256.33512748 -104.25268725 251.65404731 -108.66748047 246.91748047 C-114.0833263 241.07443559 -119.10175531 234.93293564 -124.07421875 228.7109375 C-126.34798586 226.07596095 -127.37162549 225.62931807 -130.7421875 224.86328125 C-133.98596985 225.13919706 -133.98596985 225.13919706 -135.40893555 227.12695312 C-139.24989975 233.14457475 -142.71260462 239.30633043 -146.0546875 245.61328125 C-150.39212426 253.71498014 -154.81032879 261.75799213 -159.3671875 269.73828125 C-164.55346785 278.83809646 -169.53256392 288.03990347 -174.44863892 297.28744507 C-179.19383578 306.20870634 -184.10032778 315.02271129 -189.12426758 323.78979492 C-194.18192777 332.68430078 -198.86787178 341.76181828 -203.50024414 350.88305664 C-204.05832764 351.97610107 -204.61641113 353.06914551 -205.19140625 354.1953125 C-205.68471436 355.16960205 -206.17802246 356.1438916 -206.6862793 357.14770508 C-207.9921875 359.48828125 -207.9921875 359.48828125 -209.9921875 361.48828125 C-213.48892332 362.1024905 -214.85599057 361.57255882 -217.90234375 359.6875 C-218.96418535 358.86433308 -220.01444134 358.0260749 -221.0546875 357.17578125 C-221.62050537 356.7257373 -222.18632324 356.27569336 -222.76928711 355.81201172 C-228.76680075 350.97894228 -234.43170616 345.81342726 -239.9921875 340.48828125 C-240.49105469 340.01664551 -240.98992187 339.54500977 -241.50390625 339.05908203 C-281.1787972 301.41128223 -304.84242463 244.39248023 -306.28276062 189.96986389 C-306.36048421 185.51734536 -306.37694306 181.06639929 -306.3671875 176.61328125 C-306.36664368 175.67318207 -306.36609985 174.73308289 -306.36553955 173.76449585 C-306.32385402 158.02353831 -305.30460233 142.9236837 -301.9921875 127.48828125 C-301.66275146 125.93439697 -301.66275146 125.93439697 -301.32666016 124.34912109 C-289.27759141 69.1348818 -257.68834018 18.63324952 -209.9921875 -12.51171875 C-204.7871076 -15.74860288 -199.42868504 -18.68427757 -193.9921875 -21.51171875 C-193.31285156 -21.86508301 -192.63351562 -22.21844727 -191.93359375 -22.58251953 C-130.38846833 -54.09676499 -52.8173478 -44.3362332 0 0 Z " fill="#FFFFFF" transform="translate(906.9921875,535.51171875)"/>
<path d="M0 0 C24.61450084 22.81152785 40.49140128 57.94550757 41.8762207 91.56420898 C42.68612363 127.66531039 35.53014619 161.10039974 11.75 189.5 C10.85374511 190.59731207 9.95793119 191.69498442 9.0625 192.79296875 C-18.94522474 226.80514286 -56.71096285 246.6932898 -98.25 259.5 C-95.95128708 271.646883 -93.45430958 283.73191469 -90.69140625 295.78125 C-90.46632385 296.76337463 -90.24124146 297.74549927 -90.00933838 298.75738525 C-88.86647412 303.73333407 -87.71441549 308.70700882 -86.55322266 313.67871094 C-86.12263843 315.54099645 -85.6921337 317.40330035 -85.26171875 319.265625 C-84.95736656 320.55176697 -84.95736656 320.55176697 -84.64686584 321.8638916 C-82.69138826 330.36248219 -82.69138826 330.36248219 -83.25 333.5 C-86.46076002 336.52631269 -89.7773912 337.39098821 -93.99902344 338.45581055 C-94.6574612 338.62357593 -95.31589897 338.7913413 -95.9942894 338.96419048 C-103.39018304 340.82919637 -110.82474122 342.53238445 -118.265625 344.20703125 C-119.73916231 344.53998608 -121.21269327 344.87296903 -122.68621826 345.20597839 C-125.73774147 345.89468418 -128.78983834 346.58078107 -131.84228516 347.26538086 C-135.75448028 348.14337475 -139.66427825 349.03160847 -143.57364273 349.92210865 C-146.59897363 350.6094409 -149.6258693 351.28966765 -152.65325165 351.96790123 C-154.0971535 352.29263542 -155.54046685 352.61999806 -156.98316193 352.95005226 C-158.98619863 353.40756396 -160.99122469 353.85503947 -162.99707031 354.30004883 C-164.70458466 354.6849926 -164.70458466 354.6849926 -166.44659424 355.07771301 C-169.25 355.5 -169.25 355.5 -172.25 354.5 C-173.28015137 351.7646637 -173.28015137 351.7646637 -174.21679688 348.03344727 C-174.3919709 347.35069733 -174.56714493 346.66794739 -174.74762726 345.96450806 C-175.33356414 343.66805388 -175.9009869 341.36741534 -176.46875 339.06640625 C-176.88166048 337.43345969 -177.29574915 335.80081065 -177.7109375 334.16844177 C-178.60241169 330.65342751 -179.48581427 327.13651766 -180.36303711 323.61791992 C-181.7613288 318.00965321 -183.17702735 312.40587431 -184.59570312 306.80273438 C-186.30210397 300.05890578 -188.00465406 293.3141305 -189.70198822 286.56801414 C-192.48065329 275.52610441 -195.28834429 264.49199281 -198.125 253.46484375 C-198.31803648 252.71439159 -198.51107296 251.96393944 -198.70995903 251.19074631 C-199.67377058 247.44475452 -200.63830924 243.69895046 -201.60324097 239.95324707 C-203.53245491 232.46334707 -205.45547402 224.97185514 -207.37890625 217.48046875 C-207.57192385 216.7288509 -207.76494144 215.97723305 -207.96380806 215.2028389 C-211.30404949 202.19549827 -214.63560829 189.18594272 -217.96484375 176.17578125 C-218.44824757 174.28693522 -218.93165616 172.3980904 -219.41506958 170.50924683 C-221.52248888 162.27458439 -223.62954128 154.03982896 -225.7347784 145.80460835 C-226.59742045 142.43074608 -227.46067603 139.057041 -228.32406807 135.68337059 C-228.72168884 134.12910134 -229.11904402 132.57476412 -229.51609612 131.0203495 C-232.03394316 121.16367755 -234.60910867 111.32449017 -237.25 101.5 C-238.35371948 101.6330957 -239.45743896 101.76619141 -240.59460449 101.90332031 C-244.23000987 102.341078 -247.86575611 102.77580835 -251.50170898 103.20898438 C-253.11674416 103.40194037 -254.73165511 103.59593928 -256.34643555 103.79101562 C-258.67204149 104.07177865 -260.99807341 104.34874605 -263.32421875 104.625 C-264.04212082 104.71249512 -264.76002289 104.79999023 -265.49967957 104.89013672 C-269.10364178 105.31436764 -272.62056754 105.59901265 -276.25 105.5 C-304.02220263 33.53068708 -304.02220263 33.53068708 -297.25 16.5 C-293.40289171 12.48562613 -288.28750264 10.33983709 -283.3125 8 C-282.4064502 7.57203125 -281.50040039 7.1440625 -280.56689453 6.703125 C-268.29754507 1.01109552 -255.70727723 -3.89818074 -243.10015869 -8.7800293 C-241.32115245 -9.47231174 -239.5459839 -10.17443163 -237.77099609 -10.87695312 C-211.39382683 -21.30951344 -184.27811947 -28.16471533 -156.25 -32.5 C-155.20585937 -32.66371094 -154.16171875 -32.82742187 -153.0859375 -32.99609375 C-100.03743792 -40.95995039 -41.83075158 -36.6098663 0 0 Z " fill="#FFFFFF" transform="translate(352.25,140.5)"/>
<path d="M0 0 C44.35301154 -0.69321565 88.61824909 0.21567598 128.48199463 22.05535889 C129.7188969 22.7117538 130.95587551 23.3680049 132.19293213 24.02410889 C140.02162518 28.25549382 146.80533488 33.18676689 153.48199463 39.05535889 C154.32375244 39.7527417 155.16551025 40.45012451 156.03277588 41.16864014 C172.16931025 54.89598741 183.78834538 74.88028287 186.48199463 96.05535889 C187.98856376 121.5808698 181.68183966 142.4291392 166.48199463 163.05535889 C165.88000244 163.88035889 165.27801025 164.70535889 164.65777588 165.55535889 C151.83101996 182.33501442 136.78036267 193.62922479 117.48199463 202.05535889 C122.95194431 210.29198078 128.45265565 218.50700786 133.99371338 226.69598389 C141.50889788 237.80295879 149.0047767 248.92278632 156.48199463 260.05535889 C157.37362305 261.3825293 157.37362305 261.3825293 158.28326416 262.73651123 C161.59063754 267.66303315 164.8866895 272.59679347 168.16598511 277.54205322 C169.16000576 279.03840063 170.15716928 280.53266548 171.15762329 282.02471924 C172.53897471 284.08647267 173.90841017 286.15565266 175.27496338 288.22723389 C175.87600891 289.11662659 175.87600891 289.11662659 176.48919678 290.02398682 C180.05792533 295.48670929 182.38031759 301.46765718 181.48199463 308.05535889 C173.94506431 315.19969455 159.49870577 314.79424338 149.73199463 315.68035889 C148.40334976 315.80608351 147.07473671 315.93214474 145.74615479 316.05853271 C136.33151075 316.93335505 126.93175701 317.70615154 117.48199463 318.05535889 C115.83263916 318.13463623 115.83263916 318.13463623 114.14996338 318.21551514 C107.65542789 318.40340736 101.23155544 318.38715566 95.48199463 315.05535889 C92.75636323 312.27488581 90.72133127 309.17365851 88.65142822 305.88543701 C86.86970185 303.09716543 84.98144588 300.38434778 83.1038208 297.66009521 C81.43256673 295.23359432 79.77313438 292.79930303 78.11480713 290.36395264 C73.61349152 283.77035427 69.04692083 277.22239452 64.47808838 270.67547607 C60.53879718 265.02656526 56.62428644 259.36135638 52.72467041 253.68499756 C52.21859756 252.94860802 51.71252472 252.21221848 51.19111633 251.4535141 C49.95460749 249.65422176 48.71828216 247.8548033 47.48199463 246.05535889 C47.54463501 247.19382263 47.60727539 248.33228638 47.67181396 249.50524902 C48.26387578 260.27354607 48.85247563 271.0420276 49.43775177 281.81069565 C49.73870266 287.34595921 50.04084105 292.88115245 50.34576416 298.41619873 C50.64039761 303.76528114 50.93181915 309.11453004 51.22108459 314.46390533 C51.33158266 316.49712526 51.44320648 318.53028434 51.55601501 320.56337738 C51.85602571 325.97712288 52.13915335 331.39086432 52.37973022 336.80760193 C52.47237261 338.84386827 52.58018768 340.87943032 52.6897583 342.91485596 C52.72625488 343.98248169 52.76275146 345.05010742 52.800354 346.15008545 C52.83689087 347.0232843 52.87342773 347.89648315 52.91107178 348.79614258 C52.31735382 351.92224075 50.92445922 353.09250928 48.48199463 355.05535889 C45.50543213 355.81317139 45.50543213 355.81317139 41.85699463 356.18035889 C40.83666138 356.28646484 40.83666138 356.28646484 39.79571533 356.39471436 C37.35943241 356.63746619 34.92146368 356.84709511 32.48199463 357.05535889 C31.49666748 357.14559326 30.51134033 357.23582764 29.49615479 357.32879639 C-17.95476164 361.63920647 -17.95476164 361.63920647 -29.20550537 355.36785889 C-34.27116717 350.30219709 -33.91531346 342.74938159 -34.21408081 335.97540283 C-34.26479229 334.97545146 -34.31550377 333.9755001 -34.36775196 332.94524717 C-34.53523768 329.60273092 -34.69091417 326.25977122 -34.84661865 322.91668701 C-34.96443884 320.51634331 -35.08297701 318.11603476 -35.20217896 315.71575928 C-35.49027752 309.87591851 -35.77070879 304.03573944 -36.04758848 298.19535881 C-36.37093194 291.38195982 -36.70305568 284.56899722 -37.03552781 277.75603861 C-37.62906634 265.58725366 -38.21468981 253.41810071 -38.7958374 241.24871826 C-39.35847057 229.46718627 -39.92657964 217.68593566 -40.50091553 205.90496826 C-40.53623403 205.18048746 -40.57155253 204.45600666 -40.60794128 203.7095719 C-40.66083257 202.6246504 -40.66083257 202.6246504 -40.71479237 201.5178113 C-41.37001919 188.07701955 -42.02044114 174.63599916 -42.66842363 161.19485632 C-42.89685758 156.45837107 -43.12662293 151.72195148 -43.35678482 146.98554993 C-43.66725564 140.59008841 -43.97393582 134.19445545 -44.27777481 127.79867554 C-44.38941046 125.46025212 -44.50224651 123.12188563 -44.61641693 120.78358459 C-45.19751274 108.8651234 -45.70262115 96.98997002 -45.51800537 85.05535889 C-46.58019287 85.10176514 -47.64238037 85.14817139 -48.73675537 85.19598389 C-64.16514507 85.67378981 -64.16514507 85.67378981 -69.51800537 81.05535889 C-72.87720543 76.83482548 -74.61402467 73.33444674 -74.7074585 67.95452881 C-74.72417603 67.13324997 -74.74089355 66.31197113 -74.75811768 65.46580505 C-74.77848083 64.13921623 -74.77848083 64.13921623 -74.79925537 62.78582764 C-74.81766479 61.87206863 -74.83607422 60.95830963 -74.8550415 60.01686096 C-74.91379644 57.09225913 -74.96658033 54.16759822 -75.01800537 51.24285889 C-75.08589067 47.40289822 -75.15963778 43.56311267 -75.23675537 39.72332764 C-75.25711853 38.40584785 -75.25711853 38.40584785 -75.27789307 37.06175232 C-75.36730669 32.61856842 -75.69712922 28.4357829 -76.51800537 24.05535889 C-76.75162066 21.20138559 -76.79300326 18.35552 -76.83050537 15.49285889 C-76.85950928 14.75100342 -76.88851318 14.00914795 -76.918396 13.24481201 C-76.9267749 12.52100342 -76.93515381 11.79719482 -76.94378662 11.05145264 C-76.95836914 10.40361816 -76.97295166 9.75578369 -76.98797607 9.08831787 C-76.26504202 5.96111172 -74.7402466 4.33863037 -72.51800537 2.05535889 C-69.68664551 1.37815857 -69.68664551 1.37815857 -66.36468506 1.30413818 C-65.11124802 1.26449448 -63.85781097 1.22485077 -62.56639099 1.18400574 C-61.19089486 1.16530941 -59.81539089 1.14718321 -58.43988037 1.12957764 C-57.00723649 1.09372592 -55.57464303 1.05580692 -54.1421051 1.01594543 C-50.3102948 0.91578983 -46.47851295 0.84644715 -42.64592361 0.78410339 C-39.47371416 0.72908207 -36.30198335 0.6571683 -33.13012409 0.58503151 C-23.9204449 0.3759034 -14.71044346 0.21760998 -5.49938202 0.08437347 C-3.66623548 0.05752952 -1.83311613 0.02884568 0 0 Z " fill="#FFFFFF" transform="translate(613.5180053710938,136.94464111328125)"/>
<path d="M0 0 C5.16758719 4.47319035 8.71796606 9.18308477 11.8125 15.25 C12.23208984 16.0651709 12.65167969 16.8803418 13.08398438 17.72021484 C31.35980926 54.41485728 39.83665922 96.19750355 50.21154022 135.65976334 C52.76471542 145.36801939 55.35790577 155.0644166 57.99609375 164.75 C81.08587698 249.53250245 81.08587698 249.53250245 75.83203125 262.9921875 C68.52012275 271.00566505 49.18827571 271.32152161 39 272 C32.81453418 272.25680672 26.62754222 272.30074786 20.4375 272.3125 C19.65953064 272.31608521 18.88156128 272.31967041 18.08001709 272.32336426 C15.84343127 272.32891688 13.60760723 272.31826107 11.37109375 272.30078125 C9.4209436 272.28785034 9.4209436 272.28785034 7.43139648 272.2746582 C1.78003055 271.82230767 1.78003055 271.82230767 -1 270 C-2.53276067 265.44745301 -3.42766245 260.92222217 -4.12915039 256.1784668 C-4.22537186 255.53692154 -4.32159332 254.89537628 -4.42073059 254.23439026 C-4.62684634 252.85593185 -4.83083099 251.47715337 -5.03285408 250.09808922 C-5.35249242 247.91620657 -5.67780283 245.73523355 -6.00450134 243.55439758 C-6.5784077 239.71710806 -7.14736481 235.87910434 -7.71466064 232.04083252 C-8.62524373 225.88021628 -9.5398609 219.7202173 -10.46117973 213.56119728 C-10.78151592 211.41115204 -11.09755778 209.26050434 -11.41334534 207.10978699 C-11.60702194 205.81116226 -11.80069855 204.51253754 -12.00024414 203.17456055 C-12.16964005 202.02763229 -12.33903595 200.88070404 -12.51356506 199.69902039 C-12.86168728 197.04205943 -12.86168728 197.04205943 -14 195 C-26.21 195 -38.42 195 -51 195 C-54.60733966 202.25963742 -54.60733966 202.25963742 -55.49829102 209.25683594 C-55.50832657 210.18099304 -55.51836212 211.10515015 -55.52870178 212.05731201 C-55.52051926 213.0232428 -55.51233673 213.98917358 -55.50390625 214.984375 C-55.51332748 216.00299622 -55.52274872 217.02161743 -55.53245544 218.07110596 C-55.56093263 221.2976128 -55.56418883 224.52337808 -55.5625 227.75 C-55.56611105 230.99079469 -55.57564437 234.23105735 -55.60325623 237.47174072 C-55.6200122 239.48058333 -55.62294586 241.48960179 -55.61024475 243.49847412 C-55.67471905 252.03662597 -55.67471905 252.03662597 -59 256 C-61.83707821 257.41853911 -64.2493074 257.15085845 -67.42163086 257.17700195 C-68.08034683 257.18357315 -68.73906281 257.19014435 -69.41773987 257.19691467 C-71.60010894 257.2166451 -73.78240931 257.22830789 -75.96484375 257.23828125 C-76.70947939 257.24235678 -77.45411503 257.2464323 -78.22131538 257.25063133 C-82.16048023 257.27148825 -86.09961024 257.28579312 -90.03881836 257.29516602 C-94.11243544 257.3062464 -98.18550864 257.34066533 -102.25893307 257.38033772 C-105.38758887 257.40644427 -108.5161137 257.41485235 -111.64486885 257.41844749 C-113.14682258 257.42332682 -114.64876996 257.43497905 -116.1506176 257.45348549 C-118.25051303 257.4777585 -120.34898273 257.47693519 -122.44897461 257.4699707 C-124.24195229 257.47877007 -124.24195229 257.47877007 -126.07115173 257.48774719 C-129 257 -129 257 -130.87306213 255.16105652 C-151.76480022 215.09830938 -113.00449968 111.37367139 -100.4375 71.3125 C-80.55409218 8.70374513 -80.55409218 8.70374513 -58 -3 C-39.68547654 -11.27775072 -16.8538502 -12.26656165 0 0 Z " fill="#FFFFFF" transform="translate(490,237)"/>
<path d="M0 0 C8.547804 6.88033466 12.64113186 16.59498409 16.1875 26.72265625 C16.75984375 28.34602905 16.75984375 28.34602905 17.34375 30.00219727 C24.04325082 49.46707558 28.68672259 69.42218269 32.953125 89.53125 C33.34324462 91.36161076 33.7334027 93.19196333 34.12359619 95.02230835 C38.27582295 114.5368996 42.32796672 134.07221329 46.33447266 153.6171875 C47.15597415 157.62297982 47.98203421 161.62779135 48.81201172 165.63183594 C62.87934871 233.52043287 62.87934871 233.52043287 63 256.34765625 C63.01417969 257.58257812 63.02835938 258.8175 63.04296875 260.08984375 C62.81835762 263.38667827 62.34770357 265.56523306 60.8125 268.47265625 C49.8739931 276.04546872 31.77373431 274.65945291 19.07983398 274.65795898 C17.01329827 274.6601422 14.94730116 274.67836599 12.88085938 274.69726562 C-9.70486831 274.79441071 -9.70486831 274.79441071 -16.1875 270.47265625 C-16.82568359 268.03979492 -16.82568359 268.03979492 -17.2109375 264.703125 C-17.2862973 264.06360397 -17.3616571 263.42408295 -17.43930054 262.7651825 C-18.74829986 251.13318106 -19.65849888 239.45200503 -20.64263916 227.78924561 C-20.87089442 225.0961944 -21.10310069 222.40348981 -21.3353672 219.71078205 C-21.61352585 216.48183148 -21.88876372 213.25263297 -22.1640625 210.0234375 C-22.26715729 208.82245926 -22.37025208 207.62148102 -22.47647095 206.3841095 C-22.57011932 205.27162338 -22.6637677 204.15913727 -22.76025391 203.01293945 C-22.84304596 202.0367012 -22.92583801 201.06046295 -23.01113892 200.05464172 C-23.16070383 197.86496115 -23.1875 195.66743885 -23.1875 193.47265625 C-24.35478638 193.49005859 -24.35478638 193.49005859 -25.5456543 193.5078125 C-33.74944848 193.57623345 -41.82780354 193.16182154 -50 192.47265625 C-51.18142578 192.37726563 -52.36285156 192.281875 -53.58007812 192.18359375 C-56.44963071 191.95124131 -59.31871003 191.71421151 -62.1875 191.47265625 C-62.47625 192.35953125 -62.765 193.24640625 -63.0625 194.16015625 C-64.1875 197.47265625 -64.1875 197.47265625 -65.21557617 199.51538086 C-66.68387326 203.98297258 -66.67612234 208.42553983 -66.86328125 213.1015625 C-66.96981899 215.20902926 -67.07726849 217.31645008 -67.18554688 219.42382812 C-67.34675071 222.73724367 -67.50063844 226.05051383 -67.63842773 229.36499023 C-67.77553565 232.570274 -67.94221421 235.77293631 -68.11328125 238.9765625 C-68.14682205 239.96829971 -68.18036285 240.96003693 -68.21492004 241.98182678 C-68.60625615 248.77891774 -68.60625615 248.77891774 -71.39501953 252.10742188 C-74.57631624 253.66274721 -76.41151251 253.92862413 -79.94140625 253.8125 C-81.17648926 253.77624512 -82.41157227 253.73999023 -83.68408203 253.70263672 C-85.1853861 253.62927359 -86.6865153 253.55228645 -88.1875 253.47265625 C-89.07878601 253.42860657 -89.97007202 253.38455688 -90.8883667 253.33917236 C-97.19334171 253.02070995 -103.49387083 252.64530016 -109.79418945 252.24584961 C-113.14177545 252.0340951 -116.48976961 251.83005471 -119.83789062 251.62695312 C-121.98440309 251.49394207 -124.13088853 251.36049412 -126.27734375 251.2265625 C-127.26911118 251.16610245 -128.2608786 251.1056424 -129.28269958 251.04335022 C-134.29870417 250.72164216 -139.22418568 250.27027802 -144.1875 249.47265625 C-162.63682534 194.12468023 -112.46356492 80.77316141 -88.1875 31.47265625 C-79.19430073 13.59795209 -70.03107334 -0.92340254 -50.1875 -7.52734375 C-49.18009766 -7.86765625 -49.18009766 -7.86765625 -48.15234375 -8.21484375 C-32.0758534 -12.67537287 -13.57859964 -9.48077225 0 0 Z " fill="#FFFFFF" transform="translate(944.1875,218.52734375)"/>
<path d="M0 0 C4.31422975 3.14579253 5.71433868 4.62934733 6.6875 9.9375 C6.8421875 11.54625 6.8421875 11.54625 7 13.1875 C1.73337722 13.71416228 1.73337722 13.71416228 -1 13.1875 C-3.1875 10.3125 -3.1875 10.3125 -5 7.1875 C-8.12365615 5.2457678 -9.8620689 5.18266031 -13.5625 5.3125 C-17.31119446 6.26671314 -18.64009442 7.19223522 -21 10.1875 C-22.33827901 12.86405801 -22.20578556 15.01184052 -22.25 18 C-22.27578125 19.03769531 -22.3015625 20.07539062 -22.328125 21.14453125 C-21.95725829 24.58387843 -21.01711065 26.40902896 -19 29.1875 C-15.58071806 31.75196145 -12.1498078 31.48391484 -8 31.1875 C-5.69863938 30.70367907 -5.69863938 30.70367907 -4 29.1875 C-2.23272142 26.1540533 -2.23272142 26.1540533 -1 23.1875 C1.64 23.1875 4.28 23.1875 7 23.1875 C6.71075457 28.00825719 5.93966413 31.29191437 2.57421875 34.8984375 C-2.14502226 38.7628284 -7.80147963 39.72164459 -13.76953125 39.46484375 C-19.36075136 38.76961323 -23.46931704 37.14210445 -27.375 33 C-32.1719754 26.73909751 -32.45199709 20.46909184 -31.5390625 12.8046875 C-30.50538896 7.78612754 -28.33031749 4.51781749 -24.6875 0.875 C-17.25873381 -3.78957412 -7.80661923 -4.18448022 0 0 Z " fill="#FFFFFF" transform="translate(659,911.8125)"/>
<path d="M0 0 C2.95570176 3.1463922 3.09144376 5.06503769 3.25390625 9.2890625 C3.29580078 10.3203125 3.33769531 11.3515625 3.38085938 12.4140625 C3.42017578 13.49429688 3.45949219 14.57453125 3.5 15.6875 C3.54318359 16.77546875 3.58636719 17.8634375 3.63085938 18.984375 C3.7371453 21.6769517 3.83918057 24.36962253 3.9375 27.0625 C1.2975 27.0625 -1.3425 27.0625 -4.0625 27.0625 C-4.0625 26.4025 -4.0625 25.7425 -4.0625 25.0625 C-4.8875 25.5575 -5.7125 26.0525 -6.5625 26.5625 C-10.95646025 28.44562582 -13.31118421 28.51500627 -18.0625 28.0625 C-20.94148475 26.8107675 -22.50990029 25.76580872 -24.4375 23.3125 C-25.40291582 19.83700306 -25.04996547 17.51862916 -24.0625 14.0625 C-19.87410913 9.98150377 -15.82836355 9.53493216 -10.234375 9.23828125 C-8.01585934 9.19484687 -8.01585934 9.19484687 -6.0625 8.0625 C-6.0625 6.7425 -6.0625 5.4225 -6.0625 4.0625 C-8.7025 4.0625 -11.3425 4.0625 -14.0625 4.0625 C-14.3925 5.3825 -14.7225 6.7025 -15.0625 8.0625 C-17.7025 8.0625 -20.3425 8.0625 -23.0625 8.0625 C-22.75045779 4.63003564 -22.41511037 2.52844942 -20.3125 -0.25 C-14.60026956 -4.53417283 -5.83342527 -3.69053435 0 0 Z M-12.1875 14.875 C-12.89132812 15.02582031 -13.59515625 15.17664063 -14.3203125 15.33203125 C-14.89523437 15.57308594 -15.47015625 15.81414063 -16.0625 16.0625 C-16.3925 17.0525 -16.7225 18.0425 -17.0625 19.0625 C-16.0725 20.5475 -16.0725 20.5475 -15.0625 22.0625 C-11.92774983 22.46268087 -9.9406353 22.63783002 -7.25 20.875 C-5.78711964 18.64218261 -5.41744045 16.68905933 -5.0625 14.0625 C-7.66398566 14.0625 -9.6752626 14.3048797 -12.1875 14.875 Z " fill="#FFFFFF" transform="translate(806.0625,922.9375)"/>
<path d="M0 0 C4.7646777 5.11331265 4.5625 7.50967924 4.5625 14.75 C-2.3675 14.75 -9.2975 14.75 -16.4375 14.75 C-14.98461014 19.3341963 -14.98461014 19.3341963 -13.4375 20.75 C-9.97937831 21.08338596 -9.97937831 21.08338596 -6.4375 20.75 C-5.7775 19.76 -5.1175 18.77 -4.4375 17.75 C-2.4921875 17.45703125 -2.4921875 17.45703125 -0.3125 17.5625 C0.96625 17.624375 2.245 17.68625 3.5625 17.75 C3.26790991 21.28508103 2.81368587 22.51203444 0.1875 25 C-4.53554706 28.14869804 -8.92650112 28.28696912 -14.4375 27.75 C-18.0196971 26.35692335 -21.17444495 24.91827707 -23.4375 21.75 C-25.63978979 16.24427553 -25.88652021 11.4425794 -24.4375 5.75 C-22.10799211 1.47923553 -20.09556915 -1.39003645 -15.3125 -2.9375 C-9.79252842 -3.53749691 -4.53222325 -3.53246812 0 0 Z M-16.4375 5.75 C-16.4375 6.74 -16.4375 7.73 -16.4375 8.75 C-12.1475 8.75 -7.8575 8.75 -3.4375 8.75 C-5.20601036 5.56925835 -5.20601036 5.56925835 -7.4375 2.75 C-11.45434905 2.31574605 -13.55714892 2.86964892 -16.4375 5.75 Z " fill="#FFFFFF" transform="translate(754.4375,923.25)"/>
<path d="M0 0 C3.39951321 3.15669083 4.80010693 5.88857512 5.625 10.4375 C5.75764564 15.74332578 4.99211167 20.19743345 1.625 24.4375 C-2.68342125 28.20736859 -6.54499208 28.73851474 -12.09375 28.6484375 C-16.81570919 28.21181799 -19.50722804 26.32810806 -22.75 23 C-25.36072097 17.27649633 -25.45310624 11.27825348 -23.75 5.2109375 C-22.12654623 1.80458361 -20.03940659 -0.05715273 -16.6875 -1.5625 C-10.71947585 -3.35179588 -5.58692886 -2.58654114 0 0 Z M-15.06640625 6.1484375 C-17.31496101 10.0817303 -17.15383534 14.04836251 -16.375 18.4375 C-14.38431158 21.28194986 -14.38431158 21.28194986 -11.375 22.4375 C-8.52677465 22.36968511 -7.00459565 21.84224006 -4.625 20.3125 C-2.6965006 17.4197509 -2.55264654 14.87199979 -2.375 11.4375 C-3.29175522 8.26411654 -4.03840837 6.77409163 -6.375 4.4375 C-11.19154511 3.74424371 -11.19154511 3.74424371 -15.06640625 6.1484375 Z " fill="#FFFFFF" transform="translate(979.375,922.5625)"/>
<path d="M0 0 C2.97 0 5.94 0 9 0 C10.98 5.94 12.96 11.88 15 18 C17.26546852 14.60179721 18.38901628 11.16057722 19.625 7.3125 C19.85445312 6.61060547 20.08390625 5.90871094 20.3203125 5.18554688 C20.88429209 3.45835938 21.44269339 1.72935218 22 0 C24.97 0 27.94 0 31 0 C28.24777233 9.87564046 24.59469585 19.40757875 21 29 C17.37 29 13.74 29 10 29 C8.57169148 25.19295001 7.14763945 21.38433843 5.72753906 17.57421875 C5.24368589 16.27788194 4.75866515 14.9819803 4.27246094 13.68652344 C3.57441411 11.82601495 2.88089053 9.96381135 2.1875 8.1015625 C1.76855469 6.98088379 1.34960938 5.86020508 0.91796875 4.70556641 C0 2 0 2 0 0 Z " fill="#FFFFFF" transform="translate(904,921)"/>
<path d="M0 0 C2.64 0 5.28 0 8 0 C8 2.97 8 5.94 8 9 C10.31 9 12.62 9 15 9 C15 10.98 15 12.96 15 15 C12.69 15 10.38 15 8 15 C8.33 20.94 8.66 26.88 9 33 C10.98 33 12.96 33 15 33 C15 34.65 15 36.3 15 38 C12.42121756 39.28939122 10.85485837 38.96551673 8 38.6875 C7.113125 38.60886719 6.22625 38.53023437 5.3125 38.44921875 C3 38 3 38 1 36 C0.09118984 33.2567198 -0.11945003 30.76740395 -0.09765625 27.890625 C-0.09282227 26.75947266 -0.09282227 26.75947266 -0.08789062 25.60546875 C-0.07951172 24.82816406 -0.07113281 24.05085937 -0.0625 23.25 C-0.05798828 22.45722656 -0.05347656 21.66445313 -0.04882812 20.84765625 C-0.03708565 18.89840492 -0.01915146 16.94919262 0 15 C-1.32 15 -2.64 15 -4 15 C-4 13.02 -4 11.04 -4 9 C-2.68 9 -1.36 9 0 9 C0 6.03 0 3.06 0 0 Z " fill="#FFFFFF" transform="translate(835,912)"/>
<path d="M0 0 C0 2.31 0 4.62 0 7 C-1.11375 7.268125 -2.2275 7.53625 -3.375 7.8125 C-7.21840951 8.65809019 -7.21840951 8.65809019 -9 12 C-9.3626117 13.92744369 -9.3626117 13.92744369 -9.4140625 16.01171875 C-9.47207031 17.14770508 -9.47207031 17.14770508 -9.53125 18.30664062 C-9.57765625 19.48516602 -9.57765625 19.48516602 -9.625 20.6875 C-9.68300781 21.88342773 -9.68300781 21.88342773 -9.7421875 23.10351562 C-9.83632494 25.06863475 -9.91924632 27.0342854 -10 29 C-12.64 29 -15.28 29 -18 29 C-18 19.43 -18 9.86 -18 0 C-14.66666667 0 -11.33333333 0 -8 0 C-4.71023192 -1.09658936 -3.28696233 -0.79953138 0 0 Z " fill="#FFFFFF" transform="translate(708,921)"/>
<path d="M0 0 C2.64 0 5.28 0 8 0 C8 9.57 8 19.14 8 29 C5.36 29 2.72 29 0 29 C0 19.43 0 9.86 0 0 Z " fill="#FFFFFF" transform="translate(873,921)"/>
<path d="M0 0 C2.5 0.25 2.5 0.25 4.5 2.25 C4.125 5.375 4.125 5.375 3.5 8.25 C1.16705225 8.29241723 -1.16702567 8.29092937 -3.5 8.25 C-4.5 7.25 -4.5 7.25 -4.6875 4.8125 C-4.42807033 1.26696114 -3.53871738 0.35387174 0 0 Z " fill="#FFFFFF" transform="translate(877.5,908.75)"/>
</svg>
